<svg version="1.1" id="Layer_1" xmlns="http://www.w3.org/2000/svg" xmlns:xlink="http://www.w3.org/1999/xlink" x="0px" y="0px" style="enable-background:new 0 0 1000 1000;" xml:space="preserve" viewBox="66.27 405.84 883.03 172.95"> <style type="text/css"> 	.st0{fill:#38489D;} 	.st1{fill:#1F1B4F;} 	.st2{fill:#F7B928;} 	.st3{fill:#00B87A;} 	.st4{fill:#E0245E;} 	.st5{fill:#FFFFFF;} 	.st6{fill:#F8FEFF;} </style> <g> 	<path class="st1" d="M124.7,410.5c-25.3,8.2-45.2,28.2-53.3,53.6c-16.2,50.3,12.7,97.4,56.2,111.1c1.5,0.5,3.1-0.7,3.1-2.2v-18.4 		c0-1-0.6-1.8-1.5-2.2c-23.6-9.6-40.3-32.8-40.3-59.8c0-35.6,29-64.6,64.6-64.6c31.5,0,57.9,22.7,63.4,52.6c0.1,0.5-0.3,0.9-0.8,0.9 		h-9.9c-2.3,0-4.2,1.9-4.2,4.2v12.5c0,2.9,1,5.5,4,5.5l12.1-0.1h11v-0.1h9c1.1,0,2-0.9,2-2v-8.9C240.1,435.4,184.6,391,124.7,410.5z 		"></path> 	<path class="st1" d="M87.2,548.5l-2.9,21.9c-0.4,2.8,2.5,4.9,5,3.7l21.3-9.7c2.6-1.2,2.8-4.7,0.5-6.2L92.7,546 		C90.5,544.5,87.5,545.8,87.2,548.5z"></path> 	<path class="st2" d="M190.5,503.7h-14.1c-2.5,0-4.5-2-4.5-4.5V485c0-2.5,2-4.5,4.5-4.5h14.1c2.5,0,4.5,2,4.5,4.5v14.1 		C195,501.7,193,503.7,190.5,503.7z"></path> 	<path class="st3" d="M131,503.7h-12.1c-3.1,0-5.5-2.5-5.5-5.5v-12.1c0-3.1,2.5-5.5,5.5-5.5H131c3.1,0,5.5,2.5,5.5,5.5v12.1 		C136.6,501.2,134.1,503.7,131,503.7z"></path> 	<path class="st4" d="M160.8,503.7h-13.1c-2.8,0-5-2.3-5-5v-13.1c0-2.8,2.3-5,5-5h13.1c2.8,0,5,2.3,5,5v13.1 		C165.8,501.4,163.5,503.7,160.8,503.7z"></path> 	<path class="st1" d="M198.5,422.1c-48.6-29.9-115.1-9.6-129.9,51.6c-6.3,25.9,0.4,53.3,17.7,73.5c34.3,40.1,89.6,40.3,124.1,10.3 		c1.2-1,1-3-0.3-3.8l-15.7-9.7c-0.8-0.5-1.8-0.4-2.6,0.1c-20.6,15.1-49.1,17.1-72.1,3c-30.3-18.7-39.8-58.5-21.2-88.8 		c16.5-26.9,49.6-37.4,78-26.5"></path> </g> <g> 	<path class="st1" d="M381.3,492.6l-0.2,12.3h-77.9c1.7,7.2,5.4,13,11.1,17.6c5.7,4.5,12.2,6.8,19.5,6.8c8.1,0,15.2-2.8,21.1-8.3 		c11.1,3.8,16.7,5.8,16.7,5.9c-4.6,5.9-10.2,10.5-16.7,13.7c-6.6,3.2-13.6,4.8-21.1,4.8c-6.4,0-12.6-1.3-18.5-3.8 		c-5.9-2.5-10.9-6-15.1-10.3c-4.2-4.3-7.6-9.5-10.1-15.4c-2.5-6-3.8-12.2-3.8-18.8c0-8.7,2.1-16.8,6.4-24.3 		c4.3-7.5,10-13.3,17.3-17.7c7.3-4.3,15.2-6.5,23.8-6.5c12.1,0,22.7,4.2,31.7,12.6C374.7,469.6,379.9,480.1,381.3,492.6z 		 M303.5,489.8h61c-1.8-7.4-5.6-13.4-11.3-18.1c-5.7-4.7-12.1-7-19.2-7c-7.1,0-13.6,2.3-19.2,7C309,476.4,305.2,482.5,303.5,489.8z"></path> 	<path class="st1" d="M440.4,448.6c5.8,0,10.9,0.9,15.4,2.6c4.5,1.8,8.1,4,10.8,6.8c2.7,2.8,4.9,6,6.7,9.8c1.8,3.8,3,7.5,3.7,11.2 		c0.7,3.7,1,7.4,1,11.4v52.3h-16.1v-52.3c0-4.3-0.4-8-1.3-11.2c-0.9-3.2-2-5.7-3.4-7.5c-1.4-1.8-3-3.3-5-4.3c-2-1.1-3.9-1.8-5.7-2.1 		c-1.8-0.3-3.8-0.5-6-0.5c-7.7,0-13.9,2.5-18.7,7.5c-4.8,5-7.3,12-7.3,21.2v49.3h-16.1v-91.2h16.1v12.4c2.9-5,6.8-8.8,11.5-11.4 		C430.7,449.9,435.5,448.6,440.4,448.6z"></path> 	<path class="st1" d="M568.4,516.7l1.2-1.6l11.5,11.7l-2.4,2.8c-4.5,5-10,8.9-16.2,11.7c-6.3,2.8-12.8,4.1-19.5,4.1c-8.7,0-16.8-2.1-24.3-6.4 		c-7.4-4.3-13.3-10.1-17.7-17.6c-4.3-7.4-6.5-15.5-6.5-24.3c0-6.6,1.3-12.8,3.8-18.8c2.6-6,6-11.1,10.3-15.5 		c4.3-4.3,9.5-7.8,15.5-10.4c6-2.6,12.3-3.8,18.8-3.8c6.7,0,13.2,1.4,19.5,4.2c6.2,2.8,11.7,6.7,16.3,11.8l2.6,3l-11.8,11.1 		l-1.2-1.6c-3.1-3.9-6.9-6.9-11.3-9.1c-4.4-2.2-9.1-3.2-14-3.2c-8.9,0-16.5,3.2-22.9,9.5c-6.3,6.3-9.5,14-9.5,22.9 		c0,8.9,3.2,16.5,9.5,22.8c6.3,6.3,14,9.5,22.9,9.5c5,0,9.7-1.1,14.2-3.3C561.6,523.8,565.3,520.7,568.4,516.7z"></path> 	<path class="st1" d="M676.2,467.4v-16h16.1v91.2h-16.1v-15.7c-1.2,3.7-3.6,7-7.3,9.9c-3.6,2.9-7.6,5-12,6.4c-4.4,1.4-8.7,2.1-12.9,2.1 		c-8.7,0-16.8-2.1-24.3-6.4c-7.4-4.3-13.3-10.1-17.7-17.6c-4.3-7.4-6.5-15.5-6.5-24.3c0-6.6,1.3-12.8,3.8-18.8 		c2.6-6,6-11.1,10.3-15.5c4.3-4.3,9.5-7.8,15.5-10.4c6-2.6,12.3-3.8,18.8-3.8c4.1,0,8.3,0.7,12.6,2.1c4.3,1.4,8.2,3.5,11.9,6.5 		C672.2,460.1,674.7,463.5,676.2,467.4z M644.1,530.8c8.7,0,16.3-3.4,22.7-10.1c6.4-6.7,9.5-14.6,9.5-23.6c0-9-3.2-17-9.5-23.9 		c-6.4-6.9-13.9-10.3-22.7-10.3c-8.8,0-16.4,3.4-22.8,10.3c-6.4,6.9-9.6,14.8-9.6,23.9c0,5.9,1.4,11.4,4.3,16.6 		c2.9,5.2,6.8,9.3,11.8,12.5C632.8,529.3,638.2,530.8,644.1,530.8z"></path> 	<path class="st1" d="M747.8,526.6h5.3v16.1h-5.3c-10.5,0-18.9-3.4-25.1-10.1c-2.3-2.5-4.2-5.4-5.7-8.7c-1.5-3.3-2.4-6.3-2.8-8.9 		c-0.4-2.6-0.7-5.1-0.9-7.5c-0.2-2.4-0.2-3.9,0-4.4V426h16.1v25.5H752v16.1h-22.6v36.2c0,7.2,1.4,12.8,4.1,16.8 		C736.3,524.6,741.1,526.6,747.8,526.6z"></path> 	<path class="st1" d="M838.3,516.7l1.2-1.6l11.5,11.7l-2.4,2.8c-4.5,5-10,8.9-16.2,11.7c-6.3,2.8-12.8,4.1-19.5,4.1c-8.7,0-16.8-2.1-24.3-6.4 		c-7.4-4.3-13.3-10.1-17.7-17.6c-4.3-7.4-6.5-15.5-6.5-24.3c0-6.6,1.3-12.8,3.8-18.8c2.6-6,6-11.1,10.3-15.5 		c4.3-4.3,9.5-7.8,15.5-10.4c6-2.6,12.3-3.8,18.8-3.8c6.7,0,13.2,1.4,19.5,4.2c6.2,2.8,11.7,6.7,16.3,11.8l2.6,3l-11.8,11.1 		l-1.2-1.6c-3.1-3.9-6.9-6.9-11.3-9.1c-4.4-2.2-9.1-3.2-14-3.2c-8.9,0-16.5,3.2-22.9,9.5c-6.3,6.3-9.5,14-9.5,22.9 		c0,8.9,3.2,16.5,9.5,22.8c6.3,6.3,14,9.5,22.9,9.5c5,0,9.7-1.1,14.2-3.3C831.4,523.8,835.1,520.7,838.3,516.7z"></path> 	<path class="st1" d="M911.7,448.6c5.8,0,10.9,0.9,15.4,2.6c4.5,1.8,8.1,4,10.8,6.8c2.7,2.8,4.9,6,6.7,9.8c1.8,3.8,3,7.5,3.7,11.2 		c0.7,3.7,1,7.4,1,11.4v52.3h-16.1v-52.3c0-4.3-0.4-8-1.3-11.2c-0.9-3.2-2-5.7-3.4-7.5c-1.4-1.8-3-3.3-5-4.3c-2-1.1-3.9-1.8-5.7-2.1 		c-1.8-0.3-3.8-0.5-6-0.5c-7.7,0-13.9,2.5-18.7,7.5c-4.8,5-7.3,12-7.3,21.2v49.3h-16.1V412.4h16.1v51.4c2.9-5,6.8-8.8,11.5-11.4 		C902,449.9,906.8,448.6,911.7,448.6z"></path> </g> </svg>